<svg width="21" height="20" viewBox="0 0 21 20" fill="none" xmlns="http://www.w3.org/2000/svg">
<path id="Vector" d="M15.0446 11C15.7943 11 16.4541 10.59 16.7939 9.97L20.3726 3.48C20.7425 2.82 20.2627 2 19.5029 2L4.70844 2L3.76879 0L0.5 0L0.5 2L2.49926 2L6.09792 9.59L4.74842 12.03C4.01869 13.37 4.97834 15 6.49777 15L18.4933 15L18.4933 13L6.49777 13L7.59736 11L15.0446 11ZM5.65808 4L17.8036 4L15.0446 9H8.0272L5.65808 4ZM6.49777 16C5.39818 16 4.50851 16.9 4.50851 18C4.50851 19.1 5.39818 20 6.49777 20C7.59736 20 8.49703 19.1 8.49703 18C8.49703 16.9 7.59736 16 6.49777 16ZM16.4941 16C15.3945 16 14.5048 16.9 14.5048 18C14.5048 19.1 15.3945 20 16.4941 20C17.5937 20 18.4933 19.1 18.4933 18C18.4933 16.9 17.5937 16 16.4941 16Z" fill="#2B252E"/>
</svg>
