<svg width="20" height="20" viewBox="0 0 20 20" fill="none" xmlns="http://www.w3.org/2000/svg">
<path d="M12.75 4C11.38 4 10.25 5.52 10.25 7.4C10.25 8.88 10.95 10.11 11.92 10.58L12 10.62V17H13.5V10.62L13.58 10.59C14.55 10.12 15.25 8.89 15.25 7.41C15.25 5.53 14.13 4 12.75 4ZM8.5 4C8.23 4 8 4.22 8 4.5V7H7.25V4.5C7.25 4.22 7.03 4 6.75 4C6.47 4 6.25 4.22 6.25 4.5V7H5.5V4.5C5.5 4.22 5.28 4 5 4C4.72 4 4.5 4.22 4.5 4.5V8.3C4.5 9.23 5.14 10.01 6 10.23L6 17H7.5L7.5 10.23C8.36 10.01 9 9.23 9 8.3L9 4.5C9 4.22 8.78 4 8.5 4ZM18 2L2 2L2 18L18 18L18 2ZM18 0C19.1 0 20 0.9 20 2L20 18C20 19.1 19.1 20 18 20L2 20C0.9 20 0 19.1 0 18L0 2C0 0.9 0.9 0 2 0L18 0Z" fill="#2B252E"/>
</svg>
